<svg width="777" height="777" viewBox="0 0 777 777" fill="none" xmlns="http://www.w3.org/2000/svg">
<path d="M752.719 474.832V450.591H728.438V426.511H704.156V402.431V378.352H679.875V354.272H655.594V330.192V306.113H679.875V282.033V257.954V233.874H704.156V209.794V185.715H728.438V161.635V136.909H704.156V160.989H679.875H655.594H631.312H607.031H582.75H558.469H534.188H509.906V136.909H485.625V112.668H461.344V88.588H437.062V64.5084H412.781V40.2671V16.1875H388.5H364.219V40.2671V64.3468H339.938V88.588H315.656V112.668H291.375V136.747H267.094V160.827H242.812H218.531H194.25H169.969H145.688H121.406H97.125H72.8438V136.909H48.5625V160.989V185.068H72.8438V209.148V233.227H97.125V257.307V281.387V305.466H121.406V329.546V353.626H97.125V377.705H72.8438V401.785V425.865H48.5625V450.591H24.2812V474.832H0V498.911H24.2812V522.991H48.5625H72.8438V547.071H97.125H121.406V571.15H145.688H169.969V595.23V619.31H194.25V643.389V667.469V691.549V715.628H218.531V739.708V763.788H242.812V739.708H267.094H291.375V715.628H315.656H339.938V691.549H364.219H388.5H412.781H437.062V715.628H461.344H485.625V739.708H509.906H534.188V763.788H558.469V739.708V715.628H582.75V691.549V667.469V643.389V619.31H607.031V595.23V571.15H631.312H655.594V547.071H679.875H704.156V522.991H728.438H752.719V498.911H777V474.832H752.719ZM484.978 160.989V185.068H509.259V209.148H533.54V233.227H557.821H582.102V209.148H606.384H630.665V185.068H654.946H679.227V209.148H654.946V233.227H630.665V257.307H606.384V281.387V305.466V329.546V353.626V377.705H630.665V401.785H654.946V425.865V450.591H679.227V474.832H654.946H630.665V498.911H606.384H582.102V522.991V547.071H557.821V571.15V595.23H533.54V571.15V547.071V522.991V498.911V474.832H509.259V450.591V426.511V402.431V378.352H484.978V354.272V330.192V306.113V282.033H460.696V257.954V233.874V209.794V185.715H436.415V161.635V136.909H460.696V160.989H484.978ZM436.253 643.713V619.633H411.972H387.691H363.409H339.128V643.713H314.847V667.792H290.566V643.713V619.633V595.553H314.847V571.474V547.394V523.314V499.235V474.832H339.128V450.591V426.511V402.431V378.352V354.272V330.192H363.409V306.113V282.033V257.954V233.874V209.794H387.691H411.972V233.874V257.954V282.033V306.113V330.192H436.253V354.272V378.352V402.431V426.511V450.591H460.534V474.832V498.911V522.991V547.071V571.15V595.23H484.816V619.31V643.389V667.469H460.534V643.389H436.253V643.713ZM95.3444 209.309V185.23H119.626H143.907V209.309H168.188H192.469V233.389H216.751H241.032V209.309H265.313V185.23H289.594V161.15H313.876V136.909H338.157V160.989V185.068H313.876V209.148V233.227V257.307V281.387H289.594V305.466V329.546V353.626V377.705H265.313V401.785V425.865V450.591V474.832H241.032V498.911V522.991V547.071V571.15V595.23H216.751V571.15V547.071H192.469V522.991V498.911H168.188H143.907V474.832H119.626H95.3444V450.591H119.626V426.511V402.431H143.907V378.352H168.188V354.272V330.192V306.113V282.033V257.954H143.907V233.874H119.626V209.794H95.3444V209.309Z" fill="#F8AA19"/>
</svg>
